# Blender v2.61 (sub 0) OBJ File: 'robot.blend'
# www.blender.org
mtllib robot.mtl
o Cylinder
v 0.000000 -0.178957 -1.000000
v 0.195090 -0.178957 -0.980785
v 0.382683 -0.178957 -0.923880
v 0.555570 -0.178957 -0.831470
v 0.707107 -0.178957 -0.707107
v 0.831470 -0.178957 -0.555570
v 0.923880 -0.178957 -0.382683
v 0.980785 -0.178957 -0.195090
v 1.000000 -0.178957 -0.000000
v 0.980785 -0.178957 0.195090
v 0.923880 -0.178957 0.382683
v 0.831470 -0.178957 0.555570
v 0.707107 -0.178957 0.707107
v 0.555570 -0.178957 0.831470
v 0.382683 -0.178957 0.923880
v 0.195090 -0.178957 0.980785
v -0.000000 -0.178957 1.000000
v -0.195091 -0.178957 0.980785
v -0.382684 -0.178957 0.923879
v -0.555571 -0.178957 0.831469
v -0.707107 -0.178957 0.707106
v -0.831470 -0.178957 0.555570
v -0.923880 -0.178957 0.382683
v -0.980785 -0.178957 0.195089
v -1.000000 -0.178957 -0.000001
v -0.980785 -0.178957 -0.195091
v -0.923879 -0.178957 -0.382684
v -0.831469 -0.178957 -0.555571
v -0.707106 -0.178957 -0.707108
v -0.555569 -0.178957 -0.831470
v -0.382682 -0.178957 -0.923880
v -0.195089 -0.178957 -0.980786
v 0.000002 3.140463 -1.000000
v 0.195092 3.140463 -0.980785
v 0.382685 3.140463 -0.923879
v 0.555572 3.140463 -0.831469
v 0.707108 3.140463 -0.707105
v 0.831471 3.140463 -0.555569
v 0.923880 3.140463 -0.382682
v 0.980786 3.140463 -0.195088
v 1.000000 3.140463 0.000002
v 0.980785 3.140463 0.195092
v 0.923879 3.140463 0.382685
v 0.831469 3.140463 0.555571
v 0.707106 3.140463 0.707107
v 0.555570 3.140463 0.831470
v 0.382684 3.140463 0.923880
v 0.195091 3.140463 0.980785
v 0.000001 3.140463 1.000000
v -0.195089 3.140463 0.980786
v -0.382682 3.140463 0.923880
v -0.555568 3.140463 0.831471
v -0.707105 3.140463 0.707109
v -0.831468 3.140463 0.555573
v -0.923878 3.140463 0.382686
v -0.980785 3.140463 0.195094
v -1.000000 3.140463 0.000004
v -0.980786 3.140463 -0.195086
v -0.923881 3.140463 -0.382679
v -0.831473 3.140463 -0.555566
v -0.707111 3.140463 -0.707103
v -0.555575 3.140463 -0.831466
v -0.382689 3.140463 -0.923877
v -0.195097 3.140463 -0.980784
v 0.000000 3.140463 0.000000
vt 0.471244 0.748482
vt 0.376167 0.926360
vt 0.343292 0.904394
vt 0.412696 0.941491
vt 0.451475 0.949205
vt 0.491014 0.949204
vt 0.529793 0.941491
vt 0.566322 0.926360
vt 0.599198 0.904393
vt 0.627156 0.876435
vt 0.649122 0.843560
vt 0.664253 0.807031
vt 0.671967 0.768252
vt 0.671967 0.728713
vt 0.664254 0.689933
vt 0.649123 0.653404
vt 0.627156 0.620529
vt 0.599198 0.592571
vt 0.566323 0.570604
vt 0.529793 0.555473
vt 0.491014 0.547759
vt 0.451475 0.547759
vt 0.412696 0.555473
vt 0.376167 0.570604
vt 0.343292 0.592571
vt 0.315333 0.620529
vt 0.293367 0.653404
vt 0.278236 0.689933
vt 0.270522 0.728712
vt 0.270522 0.768251
vt 0.278235 0.807030
vt 0.293366 0.843559
vt 0.315332 0.876434
vt 0.990384 0.009508
vt 0.990384 0.475567
vt 0.929260 0.477340
vt 0.929260 0.011281
vt 0.868135 0.479113
vt 0.868135 0.013054
vt 0.807011 0.480886
vt 0.807011 0.014827
vt 0.745886 0.482659
vt 0.745886 0.016600
vt 0.684762 0.484432
vt 0.684762 0.018372
vt 0.623637 0.486204
vt 0.623637 0.020145
vt 0.562513 0.487977
vt 0.562513 0.021919
vt 0.501388 0.489750
vt 0.501388 0.023692
vt 0.440264 0.491523
vt 0.440264 0.025465
vt 0.379140 0.493295
vt 0.379140 0.027238
vt 0.318016 0.495068
vt 0.318016 0.029011
vt 0.256891 0.496841
vt 0.256892 0.030784
vt 0.195834 0.494817
vt 0.195835 0.028761
vt 0.134777 0.492794
vt 0.134778 0.026738
vt 0.073720 0.490771
vt 0.073721 0.024714
vt 0.012663 0.488748
vt 0.012664 0.022691
vt 0.981188 0.028072
vt 0.994817 0.493929
vt 0.933727 0.493692
vt 0.920098 0.027835
vt 0.872637 0.493455
vt 0.859008 0.027598
vt 0.811547 0.493219
vt 0.797918 0.027361
vt 0.750457 0.492982
vt 0.736828 0.027124
vt 0.689367 0.492745
vt 0.675738 0.026888
vt 0.628277 0.492509
vt 0.614648 0.026650
vt 0.567187 0.492272
vt 0.553558 0.026413
vt 0.506097 0.492035
vt 0.492467 0.026176
vt 0.445006 0.491798
vt 0.431377 0.025940
vt 0.383916 0.491561
vt 0.370287 0.025703
vt 0.322826 0.491324
vt 0.309197 0.025467
vt 0.261736 0.491087
vt 0.248106 0.025230
vt 0.200646 0.490851
vt 0.187016 0.024993
vt 0.139556 0.490614
vt 0.125926 0.024756
vt 0.078466 0.490377
vt 0.064836 0.024519
vt 0.017376 0.490140
vt 0.003746 0.024283
vn 0.000000 1.000000 -0.000000
vn 0.098018 -0.000000 -0.995185
vn 0.290285 -0.000000 -0.956940
vn 0.471397 -0.000000 -0.881921
vn 0.634394 -0.000000 -0.773010
vn 0.773011 0.000000 -0.634393
vn 0.881922 -0.000000 -0.471396
vn 0.956941 -0.000000 -0.290284
vn 0.995185 -0.000000 -0.098016
vn 0.995185 -0.000000 0.098018
vn 0.956940 -0.000000 0.290285
vn 0.881921 -0.000000 0.471397
vn 0.773010 -0.000000 0.634394
vn 0.634393 -0.000000 0.773010
vn 0.471397 -0.000000 0.881921
vn 0.290285 -0.000000 0.956940
vn 0.098017 -0.000000 0.995185
vn -0.098017 -0.000000 0.995185
vn -0.290284 -0.000000 0.956941
vn -0.471396 -0.000000 0.881922
vn -0.634393 0.000000 0.773011
vn -0.773010 0.000000 0.634394
vn -0.881921 0.000000 0.471398
vn -0.956940 -0.000000 0.290286
vn -0.995185 -0.000000 0.098019
vn -0.995185 -0.000000 -0.098016
vn -0.956941 -0.000000 -0.290283
vn -0.881922 -0.000000 -0.471395
vn -0.773012 -0.000000 -0.634392
vn -0.634395 -0.000000 -0.773009
vn -0.471399 -0.000000 -0.881920
vn -0.290287 -0.000000 -0.956940
vn -0.098018 0.000000 -0.995185
usemtl _robot.png
s off
f 65/1/1 34/2/1 33/3/1
f 65/1/1 35/4/1 34/2/1
f 65/1/1 36/5/1 35/4/1
f 65/1/1 37/6/1 36/5/1
f 65/1/1 38/7/1 37/6/1
f 65/1/1 39/8/1 38/7/1
f 65/1/1 40/9/1 39/8/1
f 65/1/1 41/10/1 40/9/1
f 65/1/1 42/11/1 41/10/1
f 65/1/1 43/12/1 42/11/1
f 65/1/1 44/13/1 43/12/1
f 65/1/1 45/14/1 44/13/1
f 65/1/1 46/15/1 45/14/1
f 65/1/1 47/16/1 46/15/1
f 65/1/1 48/17/1 47/16/1
f 65/1/1 49/18/1 48/17/1
f 65/1/1 50/19/1 49/18/1
f 65/1/1 51/20/1 50/19/1
f 65/1/1 52/21/1 51/20/1
f 65/1/1 53/22/1 52/21/1
f 65/1/1 54/23/1 53/22/1
f 65/1/1 55/24/1 54/23/1
f 65/1/1 56/25/1 55/24/1
f 65/1/1 57/26/1 56/25/1
f 65/1/1 58/27/1 57/26/1
f 65/1/1 59/28/1 58/27/1
f 65/1/1 60/29/1 59/28/1
f 65/1/1 61/30/1 60/29/1
f 65/1/1 62/31/1 61/30/1
f 65/1/1 63/32/1 62/31/1
f 65/1/1 64/33/1 63/32/1
f 65/1/1 33/3/1 64/33/1
f 1/34/2 33/35/2 34/36/2 2/37/2
f 2/37/3 34/36/3 35/38/3 3/39/3
f 3/39/4 35/38/4 36/40/4 4/41/4
f 4/41/5 36/40/5 37/42/5 5/43/5
f 5/43/6 37/42/6 38/44/6 6/45/6
f 6/45/7 38/44/7 39/46/7 7/47/7
f 7/47/8 39/46/8 40/48/8 8/49/8
f 8/49/9 40/48/9 41/50/9 9/51/9
f 9/51/10 41/50/10 42/52/10 10/53/10
f 10/53/11 42/52/11 43/54/11 11/55/11
f 11/55/12 43/54/12 44/56/12 12/57/12
f 12/57/13 44/56/13 45/58/13 13/59/13
f 13/59/14 45/58/14 46/60/14 14/61/14
f 14/61/15 46/60/15 47/62/15 15/63/15
f 15/63/16 47/62/16 48/64/16 16/65/16
f 16/65/17 48/64/17 49/66/17 17/67/17
f 17/68/18 49/69/18 50/70/18 18/71/18
f 18/71/19 50/70/19 51/72/19 19/73/19
f 19/73/20 51/72/20 52/74/20 20/75/20
f 20/75/21 52/74/21 53/76/21 21/77/21
f 21/77/22 53/76/22 54/78/22 22/79/22
f 22/79/23 54/78/23 55/80/23 23/81/23
f 23/81/24 55/80/24 56/82/24 24/83/24
f 24/83/25 56/82/25 57/84/25 25/85/25
f 25/85/26 57/84/26 58/86/26 26/87/26
f 26/87/27 58/86/27 59/88/27 27/89/27
f 27/89/28 59/88/28 60/90/28 28/91/28
f 28/91/29 60/90/29 61/92/29 29/93/29
f 29/93/30 61/92/30 62/94/30 30/95/30
f 30/95/31 62/94/31 63/96/31 31/97/31
f 31/97/32 63/96/32 64/98/32 32/99/32
f 33/100/33 1/101/33 32/99/33 64/98/33
